<?xml version="1.0" encoding="utf-8"?>
<!-- Generator: Adobe Illustrator 26.5.0, SVG Export Plug-In . SVG Version: 6.00 Build 0)  -->
<svg version="1.1" id="图层_1" xmlns="http://www.w3.org/2000/svg" xmlns:xlink="http://www.w3.org/1999/xlink" x="0px" y="0px"
	 viewBox="0 0 300 80" style="enable-background:new 0 0 300 80;" xml:space="preserve">
<path d="M88.89,42.76h9.59v8.62c-2.04,1.15-4.79,1.68-6.24,1.68c-6.29,0-12.02-5.53-12.02-12.12c0-5.6,4.33-12.08,12.64-12.08
	c3.12,0,6.08,1.75,7.4,2.96l2.73-3.76c-2.42-1.91-5.8-3.81-10.5-3.81c-9.88,0-16.86,7.96-16.86,16.59c0,8.61,6.9,16.87,17,16.87
	c2.68,0,7.6-1.54,10.48-4.03V38.61H91.85L88.89,42.76z"/>
<path d="M161.52,33.01c-3.02,0-5.59,1.56-7.18,3.7c-1.97-2.35-4.51-3.7-7.54-3.7c-1.52,0-3.61,0.63-4.9,1.64v-1.19h-4.61v23.32h4.61
	V42.15c0-3.28,2.72-5.09,4.85-5.09c3.36,0,5.22,2.08,5.22,5.09v14.63h4.48V42.15c0-2.27,1.96-5.09,4.94-5.09
	c3.53,0,5.22,2.62,5.22,5.09v14.63h4.48V43.12C171.08,37.36,166.97,33.01,161.52,33.01z"/>
<path d="M253.55,25.5h-11.33v31.3h11.33c10.83,0,15.33-9.83,15.33-15.76C268.87,32.76,262.35,25.5,253.55,25.5z M252.66,52.57h-5.77
	V29.49h5.77c5.39,0,11.42,4.55,11.42,11.55C264.07,46.98,259.21,52.57,252.66,52.57z"/>
<path d="M286.62,40.33c2.77-1.36,4.38-3.97,4.38-6.93c0-4.02-3.12-7.89-7.91-7.89H271.7v31.3h11.74c5.22,0,8.84-4.32,8.84-8.61
	C292.28,44.21,290.16,41.44,286.62,40.33z M276.31,29.49c0,0,4.62-0.01,5.65,0c2.25,0.03,4.36,2.07,4.36,4.37
	c0,2.89-2.29,4.72-4.36,4.72h-5.65V29.49z M282.71,52.82h-6.4v-9.97h6.4c2.64,0,4.8,2.22,4.8,5.21
	C287.51,50.44,285.33,52.82,282.71,52.82z"/>
<path d="M127.48,35.76c-2.02-1.85-4.71-2.96-7.71-2.96c-7.03,0-12.45,5.48-12.45,12.3c0,6.73,5.56,12.31,12.25,12.31
	c3,0,6.08-1.2,7.91-2.83v2.21h4.61V33.46h-4.61V35.76z M119.77,52.85c-4.3,0-7.89-3.46-7.89-7.76s3.41-7.8,7.73-7.8
	c4.2,0,7.82,3.5,7.82,7.9C127.43,49.22,124,52.85,119.77,52.85z"/>
<polygon points="25.7,68 34,68 34,40.94 25.7,35.18 "/>
<polygon points="25.7,21.65 17.39,21.65 9.08,21.65 9.08,29.32 9.08,52.55 17.39,52.55 17.39,29.32 25.7,29.32 "/>
<polygon points="50.62,52.55 42.31,52.55 42.31,60.28 50.62,60.28 56.18,60.28 58.93,60.28 58.93,29.38 50.62,29.38 "/>
<polygon points="42.32,13.93 34,13.93 34,40.94 42.32,46.75 "/>
<path d="M232.64,35.76c-2.02-1.85-4.71-2.96-7.71-2.96c-7.03,0-12.45,5.48-12.45,12.3c0,6.73,5.56,12.31,12.25,12.31
	c3,0,6.08-1.2,7.91-2.83v2.21h4.61V33.46h-4.61V35.76z M224.93,52.85c-4.3,0-7.89-3.46-7.89-7.76s3.41-7.8,7.73-7.8
	c4.2,0,7.82,3.5,7.82,7.9C232.59,49.22,229.16,52.85,224.93,52.85z"/>
<path d="M199.75,33.01c-3.02,0-5.59,1.56-7.18,3.7c-1.97-2.35-4.51-3.7-7.54-3.7c-1.52,0-3.61,0.63-4.9,1.64v-1.19h-4.61v23.32h4.61
	V42.15c0-3.28,2.72-5.09,4.85-5.09c3.36,0,5.22,2.08,5.22,5.09v14.63h4.48V42.15c0-2.27,1.96-5.09,4.94-5.09
	c3.53,0,5.22,2.62,5.22,5.09v14.63h4.48V43.12C209.31,37.36,205.2,33.01,199.75,33.01z"/>
</svg>
